<svg xmlns="http://www.w3.org/2000/svg" width="32" height="30" viewBox="0 0 32 30" fill="none">
  <path d="M25.0971 23.7241C23.4934 20.8066 20.9894 18.5334 17.988 17.2703C19.4805 16.1099 20.583 14.4922 21.1393 12.6462C21.6956 10.8002 21.6775 8.81954 21.0875 6.98482C20.4975 5.1501 19.3656 3.55432 17.852 2.42351C16.3385 1.29271 14.5201 0.684204 12.6544 0.684204C10.7887 0.684204 8.97025 1.29271 7.45671 2.42351C5.94317 3.55432 4.81123 5.1501 4.22124 6.98482C3.63125 8.81954 3.61312 10.8002 4.16942 12.6462C4.72571 14.4922 5.82823 16.1099 7.32079 17.2703C4.3194 18.5334 1.81533 20.8066 0.211693 23.7241C0.112327 23.8897 0.0460989 24.0743 0.0169478 24.267C-0.0122033 24.4597 -0.00368286 24.6565 0.0420028 24.8457C0.0876884 25.0349 0.169607 25.2127 0.282887 25.3684C0.396168 25.5241 0.538498 25.6546 0.701417 25.7522C0.864336 25.8498 1.04452 25.9124 1.23125 25.9364C1.41798 25.9603 1.60745 25.9451 1.7884 25.8916C1.96934 25.8381 2.13807 25.7475 2.28454 25.6251C2.43102 25.5027 2.55226 25.351 2.64105 25.179C4.76044 21.3817 8.5033 19.1168 12.6544 19.1168C16.8054 19.1168 20.5483 21.3829 22.6677 25.179C22.8601 25.4997 23.1653 25.7303 23.5188 25.822C23.8722 25.9137 24.2462 25.8594 24.5617 25.6704C24.8772 25.4815 25.1095 25.1728 25.2094 24.8095C25.3093 24.4463 25.269 24.0571 25.0971 23.7241ZM6.57222 9.90234C6.57222 8.6554 6.92893 7.43646 7.59725 6.39966C8.26556 5.36286 9.21547 4.55478 10.3268 4.0776C11.4382 3.60041 12.6611 3.47556 13.8409 3.71882C15.0208 3.96209 16.1045 4.56255 16.9551 5.44427C17.8057 6.32599 18.385 7.44938 18.6197 8.67236C18.8543 9.89534 18.7339 11.163 18.2736 12.315C17.8132 13.4671 17.0336 14.4517 16.0334 15.1445C15.0332 15.8372 13.8573 16.207 12.6544 16.207C11.0419 16.2051 9.49592 15.5402 8.35569 14.3583C7.21547 13.1763 6.57408 11.5738 6.57222 9.90234Z" fill="#1383FD"/>
  <ellipse cx="24.842" cy="21.7368" rx="7.15789" ry="7.57895" fill="white"/>
  <circle cx="24.8422" cy="22.1579" r="5.71579" stroke="#1383FD" stroke-width="1.2"/>
  <path fill-rule="evenodd" clip-rule="evenodd" d="M24.2523 22.7474V25.1052H25.2523V22.7474H27.7893V21.7474H25.2523V19.2105H24.2523V21.7474H21.8945V22.7474H24.2523Z" fill="#1383FD"/>
</svg>