<svg xmlns="http://www.w3.org/2000/svg" width="16" height="12" viewBox="0 0 16 12" fill="none">
<path d="M9.01954 0.319767C9.21904 0.11502 9.48958 0 9.77167 0C10.0538 0 10.3243 0.11502 10.5238 0.319767L15.311 5.23444C15.5105 5.43925 15.6225 5.71699 15.6225 6.00659C15.6225 6.29619 15.5105 6.57394 15.311 6.77874L10.5238 11.6934C10.3232 11.8924 10.0544 12.0024 9.7755 12C9.49656 11.9975 9.22974 11.8826 9.0325 11.6801C8.83526 11.4776 8.72338 11.2037 8.72095 10.9173C8.71853 10.631 8.82576 10.3551 9.01954 10.1491L11.8993 7.09874H1.79295C1.51081 7.09874 1.24022 6.98368 1.04071 6.77886C0.841208 6.57404 0.729126 6.29625 0.729126 6.00659C0.729126 5.71694 0.841208 5.43914 1.04071 5.23433C1.24022 5.02951 1.51081 4.91444 1.79295 4.91444H11.8993L9.01954 1.86407C8.8201 1.65926 8.70807 1.38152 8.70807 1.09192C8.70807 0.802318 8.8201 0.524575 9.01954 0.319767Z" fill="white"/>
</svg>