<svg width="170" height="147" viewBox="0 0 170 147" fill="none"
    xmlns="http://www.w3.org/2000/svg">
    <path d="M143.991 74.8375L123.89 66.7438L117.074 29.7819L104.105 4.04853C102.842 1.48346 99.0208 -1.48406 93.6665 0.841939C91.322 1.86996 90.3151 3.46279 89.8863 4.62828C88.9816 7.05887 89.9143 9.24143 90.0776 9.57713L97.0901 25.376C94.9269 25.6888 93.5283 26.646 92.7377 27.5147C90.9403 29.4831 90.8842 31.8997 90.9223 32.6917V40.9836C90.0987 42.8892 88.192 44.231 85.9748 44.231C83.7585 44.231 81.8499 42.8852 81.0273 40.9796V32.6907C81.0624 31.8987 81.0093 29.4821 79.2108 27.5137C78.4233 26.6441 77.0236 25.6878 74.8565 25.375L81.8388 9.65383C82.0372 9.24043 82.967 7.05788 82.0613 4.62729C81.6325 3.46279 80.6275 1.86896 78.277 0.840943C72.9248 -1.48505 69.1074 1.48744 67.86 4.01964L54.8731 29.7819L48.0561 66.7438L28.0106 74.8166C27.2822 75.1104 27.3033 75.6334 27.4145 75.9721C28.1088 77.4255 28.8563 78.846 29.6538 80.2356C29.8201 80.4677 30.2028 80.8393 30.8691 80.5703L53.6768 71.3898L60.9628 31.8658L73.5069 6.98117C73.8986 6.31475 74.615 6.23008 75.7512 6.72516C75.9105 6.7939 76.0127 6.85168 76.0738 6.90148C76.0698 6.9234 76.0628 6.95926 76.0608 6.97918L66.5856 28.3086C66.2269 28.8266 65.9674 29.3516 65.7871 29.8556C65.6769 30.2083 65.4614 31.0978 65.4614 32.6558L65.4635 55.2314C65.4635 55.7255 65.5827 56.0961 65.8201 56.3521C66.0566 56.6061 66.3993 56.7346 66.8471 56.7346H70.437C70.9971 56.7346 71.3678 56.63 71.5601 56.4218C71.7164 56.2524 71.8056 55.9606 71.8307 55.5621C71.8357 55.4884 71.8417 55.4167 71.8417 55.335L71.8567 32.1468C71.984 31.4923 72.5621 30.9982 73.2574 30.9982C73.9958 30.9982 74.597 31.559 74.6691 32.2753C74.6711 32.2912 74.6761 32.3141 74.6761 32.3251V32.343C74.6771 32.3679 74.6631 73.2696 74.6631 73.2696L74.6691 73.424C74.6691 73.4698 74.8424 78.7334 68.7758 81.5704C64.3443 83.6414 52.0046 89.5505 41.8051 94.4436C41.8051 94.4436 41.1208 94.8042 41.773 95.4617C43.0825 96.676 44.4411 97.8355 45.8478 98.9412C46.0081 99.0418 46.5041 99.2898 47.1734 98.9671C56.7608 94.3709 67.4202 89.2706 71.4549 87.376C80.885 82.968 81.0493 74.3843 81.0283 73.2357V49.0414C82.5322 49.7675 84.1964 50.2128 85.9758 50.2128C87.7572 50.2128 89.4194 49.7686 90.9233 49.0444V73.2357C90.9022 74.3793 91.0686 82.969 100.499 87.376C104.527 89.2676 115.163 94.3569 124.737 98.9492C124.755 98.9561 124.768 98.9601 124.786 98.9671C125.401 99.2639 125.873 99.0767 126.073 98.9661C127.504 97.8444 128.887 96.663 130.218 95.4278C130.729 94.8779 130.314 94.5432 130.189 94.4645C119.981 89.5665 107.616 83.6464 103.184 81.5724C97.2424 78.7932 97.2785 73.5933 97.2845 73.421L97.2885 43.4849V36.0756C97.2885 36.0756 97.2845 32.4884 97.2845 32.4207V32.4147C97.2815 32.343 97.2925 32.2523 97.3105 32.1627C97.3125 32.1478 97.3155 32.1318 97.3175 32.1159C97.3336 32.0491 97.3526 31.9884 97.3746 31.9376C97.573 31.3927 98.093 31.0002 98.7112 31.0002C99.4206 31.0002 100.005 31.5152 100.115 32.1886L100.125 32.2105V32.2872C100.13 32.331 100.125 36.0746 100.125 36.0746L100.126 55.334C100.126 55.858 100.22 56.2196 100.405 56.4218C100.597 56.63 100.969 56.7346 101.525 56.7346H105.103C105.55 56.7346 105.891 56.6061 106.126 56.3521C106.365 56.0961 106.483 55.7255 106.483 55.2304L106.489 31.8629C106.452 31.1407 106.369 30.6187 106.29 30.264C106.118 29.6415 105.825 28.9691 105.366 28.3136L95.8868 6.95826L95.8818 6.89252C95.9429 6.8457 96.0411 6.7939 96.1944 6.72915C97.3336 6.22709 98.0499 6.31376 98.4086 6.9224L110.98 31.8649L118.265 71.3889L141.063 80.5633C141.069 80.5683 141.077 80.5663 141.084 80.5693C141.703 80.8184 142.079 80.5175 142.263 80.2874C143.08 78.8659 143.845 77.4105 144.554 75.9243C144.649 75.5946 144.639 75.1204 143.991 74.8375Z" fill="url(#paint0_linear_43_410)"/>
    <path d="M44.7055 137.584C43.6757 138.454 42.5476 139.139 41.3253 139.638C40.1021 140.137 38.757 140.386 37.2952 140.386C35.7136 140.386 34.217 140.087 32.7982 139.5C31.3815 138.906 30.1398 138.096 29.0752 137.064C28.0085 136.029 27.165 134.819 26.5375 133.432C25.911 132.047 25.5978 130.552 25.5978 128.95C25.5978 127.919 25.7257 126.92 25.9827 125.959C26.2396 124.993 26.605 124.094 27.079 123.246C27.555 122.414 28.1313 121.64 28.81 120.937C29.4877 120.237 30.2462 119.636 31.0856 119.137C31.922 118.636 32.831 118.25 33.8065 117.979C34.7841 117.707 35.8191 117.567 36.9062 117.567C37.7958 117.567 38.6741 117.678 39.5391 117.892C40.4071 118.106 41.2291 118.409 42.0092 118.804C42.7882 119.197 43.515 119.674 44.1947 120.237C44.8734 120.805 45.4712 121.439 45.9861 122.146C46.6883 123.121 47.2032 124.169 47.5318 125.297C47.8574 126.422 48.0222 127.667 48.0222 129.037C48.0222 129.372 48.0089 129.655 47.9802 129.883C47.9505 130.111 47.8768 130.289 47.7581 130.432C47.6403 130.571 47.4663 130.666 47.2319 130.736C46.9965 130.799 46.6699 130.83 46.2482 130.83H30.6741C30.8256 131.667 31.1163 132.408 31.5432 133.052C31.9701 133.696 32.4768 134.243 33.0623 134.684C33.6468 135.134 34.2836 135.468 34.9756 135.696C35.6655 135.919 36.3585 136.035 37.0485 136.035C37.5767 136.035 38.0824 135.979 38.5666 135.881C39.0528 135.773 39.5063 135.636 39.928 135.457C40.3498 135.286 40.7388 135.085 41.096 134.859C41.4523 134.632 41.7676 134.401 42.0358 134.155C42.0358 134.141 42.0419 134.137 42.0511 134.137C42.1934 134.008 42.3296 133.909 42.4565 133.833C42.5855 133.756 42.7186 133.718 42.8608 133.718C42.9663 133.718 43.085 133.754 43.2212 133.823C43.3553 133.891 43.4863 134.009 43.6163 134.174C43.9336 134.553 44.2029 134.875 44.424 135.13C44.6482 135.382 44.8283 135.596 44.9706 135.773C45.1098 135.948 45.2112 136.099 45.2777 136.225C45.3422 136.357 45.3729 136.483 45.3729 136.611C45.3739 136.933 45.1508 137.259 44.7055 137.584ZM36.9082 121.884C36.2193 121.884 35.5437 122.011 34.8885 122.257C34.2324 122.507 33.6335 122.848 33.0889 123.275C32.5464 123.709 32.0724 124.21 31.665 124.791C31.2617 125.371 30.9669 125.997 30.7806 126.67H43.215C43.0267 125.962 42.7431 125.314 42.3623 124.732C41.9825 124.143 41.525 123.639 40.9845 123.214C40.444 122.791 39.8298 122.465 39.1408 122.235C38.4489 122.003 37.7057 121.884 36.9082 121.884Z" fill="#7E7E7E"/>
    <path d="M44.7055 137.584C43.6757 138.454 42.5476 139.139 41.3253 139.638C40.1021 140.137 38.757 140.386 37.2952 140.386C35.7136 140.386 34.217 140.087 32.7982 139.5C31.3815 138.906 30.1398 138.096 29.0752 137.064C28.0085 136.029 27.165 134.819 26.5375 133.432C25.911 132.047 25.5978 130.552 25.5978 128.95C25.5978 127.919 25.7257 126.92 25.9827 125.959C26.2396 124.993 26.605 124.094 27.079 123.246C27.555 122.414 28.1313 121.64 28.81 120.937C29.4877 120.237 30.2462 119.636 31.0856 119.137C31.922 118.636 32.831 118.25 33.8065 117.979C34.7841 117.707 35.8191 117.567 36.9062 117.567C37.7958 117.567 38.6741 117.678 39.5391 117.892C40.4071 118.106 41.2291 118.409 42.0092 118.804C42.7882 119.197 43.515 119.674 44.1947 120.237C44.8734 120.805 45.4712 121.439 45.9861 122.146C46.6883 123.121 47.2032 124.169 47.5318 125.297C47.8574 126.422 48.0222 127.667 48.0222 129.037C48.0222 129.372 48.0089 129.655 47.9802 129.883C47.9505 130.111 47.8768 130.289 47.7581 130.432C47.6403 130.571 47.4663 130.666 47.2319 130.736C46.9965 130.799 46.6699 130.83 46.2482 130.83H30.6741C30.8256 131.667 31.1163 132.408 31.5432 133.052C31.9701 133.696 32.4768 134.243 33.0623 134.684C33.6468 135.134 34.2836 135.468 34.9756 135.696C35.6655 135.919 36.3585 136.035 37.0485 136.035C37.5767 136.035 38.0824 135.979 38.5666 135.881C39.0528 135.773 39.5063 135.636 39.928 135.457C40.3498 135.286 40.7388 135.085 41.096 134.859C41.4523 134.632 41.7676 134.401 42.0358 134.155C42.0358 134.141 42.0419 134.137 42.0511 134.137C42.1934 134.008 42.3296 133.909 42.4565 133.833C42.5855 133.756 42.7186 133.718 42.8608 133.718C42.9663 133.718 43.085 133.754 43.2212 133.823C43.3553 133.891 43.4863 134.009 43.6163 134.174C43.9336 134.553 44.2029 134.875 44.424 135.13C44.6482 135.382 44.8283 135.596 44.9706 135.773C45.1098 135.948 45.2112 136.099 45.2777 136.225C45.3422 136.357 45.3729 136.483 45.3729 136.611C45.3739 136.933 45.1508 137.259 44.7055 137.584ZM36.9082 121.884C36.2193 121.884 35.5437 122.011 34.8885 122.257C34.2324 122.507 33.6335 122.848 33.0889 123.275C32.5464 123.709 32.0724 124.21 31.665 124.791C31.2617 125.371 30.9669 125.997 30.7806 126.67H43.215C43.0267 125.962 42.7431 125.314 42.3623 124.732C41.9825 124.143 41.525 123.639 40.9845 123.214C40.444 122.791 39.8298 122.465 39.1408 122.235C38.4489 122.003 37.7057 121.884 36.9082 121.884Z" fill="url(#paint1_linear_43_410)" fill-opacity="0.5"/>
    <path d="M50.914 118.129C51.2129 117.99 51.5845 117.915 52.0288 117.915H53.8038C54.1437 117.915 54.3955 118.029 54.5562 118.246C54.722 118.471 54.8347 118.718 54.892 118.982L55.0855 120.657C55.3537 120.263 55.6659 119.879 56.017 119.516C56.3671 119.15 56.7858 118.824 57.272 118.543C57.7582 118.265 58.3243 118.043 58.9764 117.874C59.6264 117.707 60.3839 117.62 61.25 117.62C62.0699 117.62 62.8131 117.7 63.4815 117.855C64.148 118.01 64.7519 118.246 65.2893 118.555C65.8268 118.862 66.313 119.242 66.747 119.69C67.1811 120.137 67.5742 120.653 67.9253 121.233C68.2058 120.688 68.5866 120.189 69.0677 119.732C69.5457 119.279 70.1006 118.889 70.727 118.573C71.3525 118.248 72.0404 118.002 72.7908 117.828C73.5391 117.654 74.317 117.564 75.1257 117.564C76.5067 117.564 77.7218 117.814 78.769 118.313C79.8172 118.816 80.6914 119.498 81.3936 120.365C82.0959 121.236 82.6272 122.251 82.9834 123.411C83.3396 124.574 83.5208 125.815 83.5208 127.139V138.749C83.5208 139.167 83.4205 139.481 83.2209 139.698C83.0223 139.912 82.7346 140.019 82.36 140.019H79.6913C79.2224 140.019 78.9102 139.931 78.7495 139.753C78.5939 139.583 78.5141 139.277 78.5141 138.836V127.155C78.5141 126.538 78.426 125.945 78.251 125.363C78.0749 124.781 77.8026 124.268 77.4331 123.82C77.0646 123.377 76.6008 123.018 76.046 122.743C75.4912 122.47 74.8268 122.336 74.054 122.336C73.409 122.336 72.8143 122.448 72.2625 122.676C71.7128 122.903 71.2389 123.226 70.8397 123.649C70.4425 124.072 70.1282 124.583 69.901 125.179C69.6706 125.778 69.556 126.443 69.556 127.171V138.77C69.556 139.6 69.1772 140.022 68.4177 140.022H65.7305C65.2617 140.022 64.9515 139.934 64.797 139.756C64.6475 139.586 64.5697 139.28 64.5697 138.839V127.171C64.5697 126.57 64.4847 125.978 64.3169 125.405C64.1449 124.833 63.8828 124.32 63.5245 123.867C63.1663 123.414 62.7087 123.053 62.1467 122.772C61.5847 122.494 60.9162 122.358 60.1434 122.358C59.607 122.358 59.0675 122.455 58.5291 122.659C57.9896 122.859 57.4993 123.155 57.0601 123.539C56.622 123.919 56.2627 124.389 55.9812 124.946C55.7007 125.503 55.5543 126.133 55.542 126.842V138.995C55.542 139.295 55.4427 139.542 55.2441 139.734C55.0435 139.924 54.7917 140.022 54.4876 140.022H51.5907C51.2047 140.022 50.9191 139.928 50.739 139.75C50.5557 139.57 50.4667 139.31 50.4667 138.975V118.944C50.4667 118.547 50.6151 118.28 50.914 118.129Z" fill="#7E7E7E"/>
    <path d="M50.914 118.129C51.2129 117.99 51.5845 117.915 52.0288 117.915H53.8038C54.1437 117.915 54.3955 118.029 54.5562 118.246C54.722 118.471 54.8347 118.718 54.892 118.982L55.0855 120.657C55.3537 120.263 55.6659 119.879 56.017 119.516C56.3671 119.15 56.7858 118.824 57.272 118.543C57.7582 118.265 58.3243 118.043 58.9764 117.874C59.6264 117.707 60.3839 117.62 61.25 117.62C62.0699 117.62 62.8131 117.7 63.4815 117.855C64.148 118.01 64.7519 118.246 65.2893 118.555C65.8268 118.862 66.313 119.242 66.747 119.69C67.1811 120.137 67.5742 120.653 67.9253 121.233C68.2058 120.688 68.5866 120.189 69.0677 119.732C69.5457 119.279 70.1006 118.889 70.727 118.573C71.3525 118.248 72.0404 118.002 72.7908 117.828C73.5391 117.654 74.317 117.564 75.1257 117.564C76.5067 117.564 77.7218 117.814 78.769 118.313C79.8172 118.816 80.6914 119.498 81.3936 120.365C82.0959 121.236 82.6272 122.251 82.9834 123.411C83.3396 124.574 83.5208 125.815 83.5208 127.139V138.749C83.5208 139.167 83.4205 139.481 83.2209 139.698C83.0223 139.912 82.7346 140.019 82.36 140.019H79.6913C79.2224 140.019 78.9102 139.931 78.7495 139.753C78.5939 139.583 78.5141 139.277 78.5141 138.836V127.155C78.5141 126.538 78.426 125.945 78.251 125.363C78.0749 124.781 77.8026 124.268 77.4331 123.82C77.0646 123.377 76.6008 123.018 76.046 122.743C75.4912 122.47 74.8268 122.336 74.054 122.336C73.409 122.336 72.8143 122.448 72.2625 122.676C71.7128 122.903 71.2389 123.226 70.8397 123.649C70.4425 124.072 70.1282 124.583 69.901 125.179C69.6706 125.778 69.556 126.443 69.556 127.171V138.77C69.556 139.6 69.1772 140.022 68.4177 140.022H65.7305C65.2617 140.022 64.9515 139.934 64.797 139.756C64.6475 139.586 64.5697 139.28 64.5697 138.839V127.171C64.5697 126.57 64.4847 125.978 64.3169 125.405C64.1449 124.833 63.8828 124.32 63.5245 123.867C63.1663 123.414 62.7087 123.053 62.1467 122.772C61.5847 122.494 60.9162 122.358 60.1434 122.358C59.607 122.358 59.0675 122.455 58.5291 122.659C57.9896 122.859 57.4993 123.155 57.0601 123.539C56.622 123.919 56.2627 124.389 55.9812 124.946C55.7007 125.503 55.5543 126.133 55.542 126.842V138.995C55.542 139.295 55.4427 139.542 55.2441 139.734C55.0435 139.924 54.7917 140.022 54.4876 140.022H51.5907C51.2047 140.022 50.9191 139.928 50.739 139.75C50.5557 139.57 50.4667 139.31 50.4667 138.975V118.944C50.4667 118.547 50.6151 118.28 50.914 118.129Z" fill="url(#paint2_linear_43_410)" fill-opacity="0.5"/>
    <path d="M136.334 138.995C136.334 139.202 136.291 139.373 136.203 139.509C136.115 139.644 136.001 139.743 135.86 139.819C135.72 139.9 135.558 139.949 135.375 139.98C135.194 140.005 135.005 140.023 134.805 140.023H132.609C132.235 140.023 131.974 139.921 131.828 139.724C131.68 139.529 131.573 139.28 131.502 138.977L131.397 137.5C130.988 137.905 130.533 138.282 130.035 138.639C129.539 138.994 129.003 139.298 128.431 139.56C127.855 139.819 127.247 140.027 126.604 140.171C125.958 140.318 125.299 140.389 124.619 140.389C123.567 140.389 122.55 140.252 121.572 139.981C120.594 139.707 119.679 139.321 118.824 138.831C117.969 138.338 117.194 137.743 116.497 137.045C115.799 136.35 115.203 135.578 114.705 134.733C114.208 133.888 113.821 132.975 113.548 132C113.273 131.023 113.133 130.008 113.133 128.952C113.133 127.899 113.273 126.881 113.548 125.907C113.821 124.93 114.209 124.02 114.705 123.174C115.203 122.328 115.799 121.559 116.497 120.866C117.194 120.182 117.969 119.588 118.824 119.093C119.679 118.602 120.594 118.217 121.572 117.947C122.55 117.672 123.567 117.54 124.619 117.54C125.369 117.54 126.083 117.613 126.761 117.769C127.442 117.929 128.075 118.149 128.667 118.434C129.258 118.721 129.805 119.058 130.309 119.46C130.812 119.859 131.27 120.297 131.679 120.773L131.923 118.914C131.981 118.701 132.038 118.53 132.092 118.396C132.144 118.265 132.208 118.157 132.284 118.075C132.36 117.994 132.457 117.943 132.574 117.912C132.691 117.885 132.836 117.869 133.012 117.869H134.771C134.956 117.869 135.142 117.888 135.331 117.919C135.517 117.957 135.689 118.009 135.841 118.088C135.991 118.162 136.113 118.266 136.202 118.397C136.29 118.531 136.333 118.701 136.333 118.893L136.334 138.995ZM118.069 128.95C118.069 129.879 118.233 130.759 118.56 131.591C118.886 132.423 119.344 133.147 119.931 133.771C120.515 134.401 121.202 134.896 121.994 135.259C122.786 135.623 123.648 135.812 124.584 135.812C125.533 135.812 126.42 135.623 127.245 135.259C128.072 134.897 128.786 134.401 129.396 133.771C130.005 133.147 130.483 132.422 130.836 131.591C131.187 130.76 131.364 129.879 131.364 128.95C131.364 128.038 131.187 127.161 130.836 126.333C130.483 125.503 130.005 124.777 129.396 124.145C128.786 123.521 128.072 123.022 127.245 122.651C126.42 122.283 125.533 122.092 124.584 122.092C123.648 122.092 122.786 122.283 121.994 122.651C121.202 123.021 120.515 123.52 119.931 124.145C119.344 124.777 118.886 125.503 118.56 126.333C118.233 127.162 118.069 128.038 118.069 128.95Z" fill="#7E7E7E"/>
    <path d="M136.334 138.995C136.334 139.202 136.291 139.373 136.203 139.509C136.115 139.644 136.001 139.743 135.86 139.819C135.72 139.9 135.558 139.949 135.375 139.98C135.194 140.005 135.005 140.023 134.805 140.023H132.609C132.235 140.023 131.974 139.921 131.828 139.724C131.68 139.529 131.573 139.28 131.502 138.977L131.397 137.5C130.988 137.905 130.533 138.282 130.035 138.639C129.539 138.994 129.003 139.298 128.431 139.56C127.855 139.819 127.247 140.027 126.604 140.171C125.958 140.318 125.299 140.389 124.619 140.389C123.567 140.389 122.55 140.252 121.572 139.981C120.594 139.707 119.679 139.321 118.824 138.831C117.969 138.338 117.194 137.743 116.497 137.045C115.799 136.35 115.203 135.578 114.705 134.733C114.208 133.888 113.821 132.975 113.548 132C113.273 131.023 113.133 130.008 113.133 128.952C113.133 127.899 113.273 126.881 113.548 125.907C113.821 124.93 114.209 124.02 114.705 123.174C115.203 122.328 115.799 121.559 116.497 120.866C117.194 120.182 117.969 119.588 118.824 119.093C119.679 118.602 120.594 118.217 121.572 117.947C122.55 117.672 123.567 117.54 124.619 117.54C125.369 117.54 126.083 117.613 126.761 117.769C127.442 117.929 128.075 118.149 128.667 118.434C129.258 118.721 129.805 119.058 130.309 119.46C130.812 119.859 131.27 120.297 131.679 120.773L131.923 118.914C131.981 118.701 132.038 118.53 132.092 118.396C132.144 118.265 132.208 118.157 132.284 118.075C132.36 117.994 132.457 117.943 132.574 117.912C132.691 117.885 132.836 117.869 133.012 117.869H134.771C134.956 117.869 135.142 117.888 135.331 117.919C135.517 117.957 135.689 118.009 135.841 118.088C135.991 118.162 136.113 118.266 136.202 118.397C136.29 118.531 136.333 118.701 136.333 118.893L136.334 138.995ZM118.069 128.95C118.069 129.879 118.233 130.759 118.56 131.591C118.886 132.423 119.344 133.147 119.931 133.771C120.515 134.401 121.202 134.896 121.994 135.259C122.786 135.623 123.648 135.812 124.584 135.812C125.533 135.812 126.42 135.623 127.245 135.259C128.072 134.897 128.786 134.401 129.396 133.771C130.005 133.147 130.483 132.422 130.836 131.591C131.187 130.76 131.364 129.879 131.364 128.95C131.364 128.038 131.187 127.161 130.836 126.333C130.483 125.503 130.005 124.777 129.396 124.145C128.786 123.521 128.072 123.022 127.245 122.651C126.42 122.283 125.533 122.092 124.584 122.092C123.648 122.092 122.786 122.283 121.994 122.651C121.202 123.021 120.515 123.52 119.931 124.145C119.344 124.777 118.886 125.503 118.56 126.333C118.233 127.162 118.069 128.038 118.069 128.95Z" fill="url(#paint3_linear_43_410)" fill-opacity="0.5"/>
    <path d="M139.196 119.063C139.184 118.683 139.301 118.393 139.547 118.204C139.793 118.011 140.073 117.915 140.388 117.915H143.233C143.596 117.915 143.876 118.029 144.068 118.246C144.261 118.468 144.358 118.74 144.358 119.063V139.376C144.358 139.969 144.322 140.543 144.253 141.115C144.124 141.962 143.836 142.748 143.392 143.467C142.947 144.186 142.396 144.805 141.741 145.329C141.087 145.851 140.351 146.259 139.538 146.556C138.724 146.853 137.89 147 137.035 147C136.695 147 136.429 146.898 136.235 146.696C136.043 146.49 135.945 146.239 135.945 145.937V144.126C135.945 143.768 136.055 143.48 136.271 143.274C136.487 143.064 136.752 142.961 137.071 142.961H137.316C137.585 142.961 137.833 142.865 138.062 142.683C138.291 142.497 138.49 142.267 138.659 141.992C138.829 141.72 138.961 141.425 139.057 141.106C139.149 140.787 139.197 140.495 139.197 140.227L139.196 119.063Z" fill="#7E7E7E"/>
    <path d="M139.196 119.063C139.184 118.683 139.301 118.393 139.547 118.204C139.793 118.011 140.073 117.915 140.388 117.915H143.233C143.596 117.915 143.876 118.029 144.068 118.246C144.261 118.468 144.358 118.74 144.358 119.063V139.376C144.358 139.969 144.322 140.543 144.253 141.115C144.124 141.962 143.836 142.748 143.392 143.467C142.947 144.186 142.396 144.805 141.741 145.329C141.087 145.851 140.351 146.259 139.538 146.556C138.724 146.853 137.89 147 137.035 147C136.695 147 136.429 146.898 136.235 146.696C136.043 146.49 135.945 146.239 135.945 145.937V144.126C135.945 143.768 136.055 143.48 136.271 143.274C136.487 143.064 136.752 142.961 137.071 142.961H137.316C137.585 142.961 137.833 142.865 138.062 142.683C138.291 142.497 138.49 142.267 138.659 141.992C138.829 141.72 138.961 141.425 139.057 141.106C139.149 140.787 139.197 140.495 139.197 140.227L139.196 119.063Z" fill="url(#paint4_linear_43_410)" fill-opacity="0.5"/>
    <path d="M170 138.995C170 139.202 169.957 139.373 169.869 139.509C169.782 139.644 169.667 139.743 169.528 139.819C169.386 139.9 169.226 139.949 169.045 139.98C168.863 140.005 168.673 140.023 168.474 140.023H166.277C165.902 140.023 165.643 139.921 165.495 139.724C165.348 139.529 165.241 139.28 165.17 138.977L165.065 137.5C164.654 137.905 164.201 138.282 163.704 138.639C163.206 138.994 162.669 139.298 162.097 139.56C161.524 139.819 160.913 140.027 160.269 140.171C159.626 140.318 158.966 140.389 158.286 140.389C157.231 140.389 156.215 140.252 155.239 139.981C154.262 139.707 153.343 139.321 152.488 138.831C151.635 138.338 150.86 137.743 150.162 137.045C149.464 136.35 148.867 135.578 148.371 134.733C147.875 133.888 147.487 132.975 147.212 132C146.937 131.023 146.798 130.008 146.798 128.952C146.798 127.899 146.937 126.881 147.212 125.907C147.487 124.93 147.875 124.02 148.371 123.174C148.867 122.328 149.464 121.559 150.162 120.866C150.86 120.182 151.634 119.588 152.488 119.093C153.343 118.602 154.261 118.217 155.239 117.947C156.214 117.672 157.23 117.54 158.286 117.54C159.035 117.54 159.749 117.613 160.428 117.769C161.106 117.929 161.743 118.149 162.333 118.434C162.924 118.721 163.471 119.058 163.975 119.46C164.479 119.859 164.935 120.297 165.344 120.773L165.59 118.914C165.648 118.701 165.704 118.53 165.757 118.396C165.809 118.265 165.875 118.157 165.95 118.075C166.026 117.994 166.121 117.943 166.239 117.912C166.355 117.885 166.503 117.869 166.679 117.869H168.436C168.622 117.869 168.811 117.888 168.998 117.919C169.186 117.957 169.354 118.009 169.507 118.088C169.658 118.162 169.779 118.266 169.866 118.397C169.954 118.531 169.997 118.701 169.997 118.893V138.995H170ZM151.736 128.95C151.736 129.879 151.9 130.759 152.226 131.591C152.555 132.422 153.011 133.147 153.597 133.771C154.183 134.401 154.871 134.896 155.661 135.259C156.451 135.623 157.313 135.812 158.251 135.812C159.199 135.812 160.086 135.623 160.913 135.259C161.739 134.897 162.457 134.401 163.063 133.771C163.674 133.147 164.154 132.422 164.504 131.591C164.855 130.76 165.031 129.879 165.031 128.95C165.031 128.038 164.855 127.161 164.504 126.333C164.154 125.503 163.674 124.777 163.063 124.145C162.457 123.521 161.739 123.022 160.913 122.651C160.087 122.283 159.2 122.092 158.251 122.092C157.313 122.092 156.452 122.283 155.661 122.651C154.871 123.021 154.183 123.52 153.597 124.145C153.011 124.777 152.555 125.503 152.226 126.333C151.9 127.162 151.736 128.038 151.736 128.95Z" fill="#7E7E7E"/>
    <path d="M170 138.995C170 139.202 169.957 139.373 169.869 139.509C169.782 139.644 169.667 139.743 169.528 139.819C169.386 139.9 169.226 139.949 169.045 139.98C168.863 140.005 168.673 140.023 168.474 140.023H166.277C165.902 140.023 165.643 139.921 165.495 139.724C165.348 139.529 165.241 139.28 165.17 138.977L165.065 137.5C164.654 137.905 164.201 138.282 163.704 138.639C163.206 138.994 162.669 139.298 162.097 139.56C161.524 139.819 160.913 140.027 160.269 140.171C159.626 140.318 158.966 140.389 158.286 140.389C157.231 140.389 156.215 140.252 155.239 139.981C154.262 139.707 153.343 139.321 152.488 138.831C151.635 138.338 150.86 137.743 150.162 137.045C149.464 136.35 148.867 135.578 148.371 134.733C147.875 133.888 147.487 132.975 147.212 132C146.937 131.023 146.798 130.008 146.798 128.952C146.798 127.899 146.937 126.881 147.212 125.907C147.487 124.93 147.875 124.02 148.371 123.174C148.867 122.328 149.464 121.559 150.162 120.866C150.86 120.182 151.634 119.588 152.488 119.093C153.343 118.602 154.261 118.217 155.239 117.947C156.214 117.672 157.23 117.54 158.286 117.54C159.035 117.54 159.749 117.613 160.428 117.769C161.106 117.929 161.743 118.149 162.333 118.434C162.924 118.721 163.471 119.058 163.975 119.46C164.479 119.859 164.935 120.297 165.344 120.773L165.59 118.914C165.648 118.701 165.704 118.53 165.757 118.396C165.809 118.265 165.875 118.157 165.95 118.075C166.026 117.994 166.121 117.943 166.239 117.912C166.355 117.885 166.503 117.869 166.679 117.869H168.436C168.622 117.869 168.811 117.888 168.998 117.919C169.186 117.957 169.354 118.009 169.507 118.088C169.658 118.162 169.779 118.266 169.866 118.397C169.954 118.531 169.997 118.701 169.997 118.893V138.995H170ZM151.736 128.95C151.736 129.879 151.9 130.759 152.226 131.591C152.555 132.422 153.011 133.147 153.597 133.771C154.183 134.401 154.871 134.896 155.661 135.259C156.451 135.623 157.313 135.812 158.251 135.812C159.199 135.812 160.086 135.623 160.913 135.259C161.739 134.897 162.457 134.401 163.063 133.771C163.674 133.147 164.154 132.422 164.504 131.591C164.855 130.76 165.031 129.879 165.031 128.95C165.031 128.038 164.855 127.161 164.504 126.333C164.154 125.503 163.674 124.777 163.063 124.145C162.457 123.521 161.739 123.022 160.913 122.651C160.087 122.283 159.2 122.092 158.251 122.092C157.313 122.092 156.452 122.283 155.661 122.651C154.871 123.021 154.183 123.52 153.597 124.145C153.011 124.777 152.555 125.503 152.226 126.333C151.9 127.162 151.736 128.038 151.736 128.95Z" fill="url(#paint5_linear_43_410)" fill-opacity="0.5"/>
    <path d="M139.142 109.889C139.154 109.518 139.241 109.255 139.404 109.096C139.57 108.94 139.822 108.86 140.162 108.846H143.216C143.579 108.86 143.853 108.939 144.033 109.079C144.215 109.225 144.306 109.518 144.306 109.962V112.376C144.306 112.496 144.285 112.623 144.245 112.762C144.203 112.904 144.139 113.036 144.05 113.162C143.962 113.289 143.853 113.395 143.716 113.483C143.582 113.573 143.415 113.614 143.216 113.614H140.162C139.481 113.582 139.142 113.184 139.142 112.429V109.889Z" fill="#7E7E7E"/>
    <path d="M139.142 109.889C139.154 109.518 139.241 109.255 139.404 109.096C139.57 108.94 139.822 108.86 140.162 108.846H143.216C143.579 108.86 143.853 108.939 144.033 109.079C144.215 109.225 144.306 109.518 144.306 109.962V112.376C144.306 112.496 144.285 112.623 144.245 112.762C144.203 112.904 144.139 113.036 144.05 113.162C143.962 113.289 143.853 113.395 143.716 113.483C143.582 113.573 143.415 113.614 143.216 113.614H140.162C139.481 113.582 139.142 113.184 139.142 112.429V109.889Z" fill="url(#paint6_linear_43_410)" fill-opacity="0.5"/>
    <path d="M110.391 109.167C110.191 108.953 109.905 108.846 109.53 108.846H106.518C106.049 108.846 105.737 108.934 105.577 109.109C105.421 109.281 105.341 109.587 105.341 110.03V121.005H91.6784V110.03C91.6784 109.586 91.5975 109.281 91.443 109.109C91.2822 108.934 90.97 108.846 90.5012 108.846H87.4896C87.1149 108.846 86.8273 108.953 86.6287 109.167C86.4301 109.385 86.3298 109.698 86.3298 110.117V138.753C86.3298 139.171 86.4301 139.485 86.6287 139.702C86.8273 139.916 87.1149 140.023 87.4896 140.023H90.5012C90.97 140.023 91.2822 139.935 91.443 139.757C91.5985 139.587 91.6784 139.281 91.6784 138.84V125.977H105.34V138.84C105.34 139.282 105.42 139.587 105.576 139.757C105.736 139.935 106.048 140.023 106.517 140.023H109.529C109.904 140.023 110.19 139.916 110.39 139.702C110.589 139.485 110.689 139.172 110.689 138.753V110.117C110.69 109.699 110.59 109.385 110.391 109.167Z" fill="#7E7E7E"/>
    <path d="M110.391 109.167C110.191 108.953 109.905 108.846 109.53 108.846H106.518C106.049 108.846 105.737 108.934 105.577 109.109C105.421 109.281 105.341 109.587 105.341 110.03V121.005H91.6784V110.03C91.6784 109.586 91.5975 109.281 91.443 109.109C91.2822 108.934 90.97 108.846 90.5012 108.846H87.4896C87.1149 108.846 86.8273 108.953 86.6287 109.167C86.4301 109.385 86.3298 109.698 86.3298 110.117V138.753C86.3298 139.171 86.4301 139.485 86.6287 139.702C86.8273 139.916 87.1149 140.023 87.4896 140.023H90.5012C90.97 140.023 91.2822 139.935 91.443 139.757C91.5985 139.587 91.6784 139.281 91.6784 138.84V125.977H105.34V138.84C105.34 139.282 105.42 139.587 105.576 139.757C105.736 139.935 106.048 140.023 106.517 140.023H109.529C109.904 140.023 110.19 139.916 110.39 139.702C110.589 139.485 110.689 139.172 110.689 138.753V110.117C110.69 109.699 110.59 109.385 110.391 109.167Z" fill="url(#paint7_linear_43_410)" fill-opacity="0.5"/>
    <path d="M24.0909 128.815C23.9087 128.13 23.6487 127.47 23.3232 126.856C22.9946 126.24 22.5984 125.655 22.1388 125.126C21.6863 124.595 21.1714 124.116 20.6074 123.706L20.159 123.381L20.545 122.986C21.241 122.27 21.7938 121.423 22.1931 120.474C22.5882 119.524 22.7888 118.488 22.7888 117.388C22.7888 116.193 22.5657 115.059 22.1194 114.03C21.6751 112.996 21.0547 112.084 20.2829 111.325C19.51 110.562 18.5826 109.949 17.5313 109.508C16.4851 109.07 15.3488 108.846 14.1563 108.846H1.16084C0.786174 108.846 0.498525 108.953 0.29891 109.167C0.100319 109.385 0 109.699 0 110.117V138.753C0 139.171 0.100319 139.485 0.29891 139.702C0.498525 139.916 0.786174 140.023 1.16084 140.023H15.5218C16.7431 140.023 17.9029 139.779 18.9685 139.298C20.0413 138.816 20.9862 138.144 21.7754 137.319C22.5687 136.487 23.2055 135.507 23.6702 134.411C24.1298 133.32 24.3632 132.154 24.3632 130.938C24.3622 130.217 24.2711 129.507 24.0909 128.815ZM14.7715 113.468C15.3181 113.686 15.7951 113.996 16.1903 114.387C16.5834 114.776 16.8966 115.246 17.1177 115.781C17.3388 116.31 17.4494 116.892 17.4494 117.501C17.4494 118.12 17.3327 118.712 17.1034 119.254C16.8761 119.79 16.5588 120.264 16.1575 120.664C15.7552 121.059 15.271 121.375 14.7193 121.603C14.1665 121.828 13.5605 121.939 12.9166 121.939H5.34046L5.3507 113.143H12.9811C13.626 113.142 14.2269 113.254 14.7715 113.468ZM18.5775 132.452C18.386 132.982 18.1117 133.471 17.7667 133.897C17.4197 134.33 17.0041 134.695 16.5383 134.981C16.0593 135.276 15.5331 135.468 14.9742 135.549C14.6906 135.606 14.3774 135.648 14.0652 135.667C13.7632 135.69 13.4469 135.703 13.1316 135.703H5.3507L5.34046 125.954H13.1326C13.453 125.954 13.7785 125.972 14.0979 126.012C14.4019 126.05 14.7019 126.087 14.9998 126.133C15.5607 126.232 16.0818 126.424 16.5557 126.705C17.0215 126.985 17.434 127.335 17.7759 127.759C18.1127 128.171 18.3809 128.641 18.5754 129.158C18.7699 129.681 18.8682 130.217 18.8682 130.766C18.8682 131.35 18.7709 131.92 18.5775 132.452Z" fill="#7E7E7E"/>
    <path d="M24.0909 128.815C23.9087 128.13 23.6487 127.47 23.3232 126.856C22.9946 126.24 22.5984 125.655 22.1388 125.126C21.6863 124.595 21.1714 124.116 20.6074 123.706L20.159 123.381L20.545 122.986C21.241 122.27 21.7938 121.423 22.1931 120.474C22.5882 119.524 22.7888 118.488 22.7888 117.388C22.7888 116.193 22.5657 115.059 22.1194 114.03C21.6751 112.996 21.0547 112.084 20.2829 111.325C19.51 110.562 18.5826 109.949 17.5313 109.508C16.4851 109.07 15.3488 108.846 14.1563 108.846H1.16084C0.786174 108.846 0.498525 108.953 0.29891 109.167C0.100319 109.385 0 109.699 0 110.117V138.753C0 139.171 0.100319 139.485 0.29891 139.702C0.498525 139.916 0.786174 140.023 1.16084 140.023H15.5218C16.7431 140.023 17.9029 139.779 18.9685 139.298C20.0413 138.816 20.9862 138.144 21.7754 137.319C22.5687 136.487 23.2055 135.507 23.6702 134.411C24.1298 133.32 24.3632 132.154 24.3632 130.938C24.3622 130.217 24.2711 129.507 24.0909 128.815ZM14.7715 113.468C15.3181 113.686 15.7951 113.996 16.1903 114.387C16.5834 114.776 16.8966 115.246 17.1177 115.781C17.3388 116.31 17.4494 116.892 17.4494 117.501C17.4494 118.12 17.3327 118.712 17.1034 119.254C16.8761 119.79 16.5588 120.264 16.1575 120.664C15.7552 121.059 15.271 121.375 14.7193 121.603C14.1665 121.828 13.5605 121.939 12.9166 121.939H5.34046L5.3507 113.143H12.9811C13.626 113.142 14.2269 113.254 14.7715 113.468ZM18.5775 132.452C18.386 132.982 18.1117 133.471 17.7667 133.897C17.4197 134.33 17.0041 134.695 16.5383 134.981C16.0593 135.276 15.5331 135.468 14.9742 135.549C14.6906 135.606 14.3774 135.648 14.0652 135.667C13.7632 135.69 13.4469 135.703 13.1316 135.703H5.3507L5.34046 125.954H13.1326C13.453 125.954 13.7785 125.972 14.0979 126.012C14.4019 126.05 14.7019 126.087 14.9998 126.133C15.5607 126.232 16.0818 126.424 16.5557 126.705C17.0215 126.985 17.434 127.335 17.7759 127.759C18.1127 128.171 18.3809 128.641 18.5754 129.158C18.7699 129.681 18.8682 130.217 18.8682 130.766C18.8682 131.35 18.7709 131.92 18.5775 132.452Z" fill="url(#paint8_linear_43_410)" fill-opacity="0.5"/>
    <defs>
        <linearGradient id="paint0_linear_43_410" x1="85.9771" y1="101.274" x2="85.9771" y2="0.666018" gradientUnits="userSpaceOnUse">
            <stop stop-color="#3777C4"/>
            <stop offset="1" stop-color="#6DCFF6"/>
        </linearGradient>
        <linearGradient id="paint1_linear_43_410" x1="36.8706" y1="123.458" x2="39.3269" y2="185.071" gradientUnits="userSpaceOnUse">
            <stop stop-color="white"/>
            <stop offset="1" stop-color="white" stop-opacity="0"/>
        </linearGradient>
        <linearGradient id="paint2_linear_43_410" x1="67.0831" y1="123.362" x2="68.6986" y2="184.053" gradientUnits="userSpaceOnUse">
            <stop stop-color="white"/>
            <stop offset="1" stop-color="white" stop-opacity="0"/>
        </linearGradient>
        <linearGradient id="paint3_linear_43_410" x1="124.796" y1="123.439" x2="127.177" y2="185.137" gradientUnits="userSpaceOnUse">
            <stop stop-color="white"/>
            <stop offset="1" stop-color="white" stop-opacity="0"/>
        </linearGradient>
        <linearGradient id="paint4_linear_43_410" x1="140.174" y1="125.424" x2="150.635" y2="202.662" gradientUnits="userSpaceOnUse">
            <stop stop-color="white"/>
            <stop offset="1" stop-color="white" stop-opacity="0"/>
        </linearGradient>
        <linearGradient id="paint5_linear_43_410" x1="158.462" y1="123.439" x2="160.842" y2="185.137" gradientUnits="userSpaceOnUse">
            <stop stop-color="white"/>
            <stop offset="1" stop-color="white" stop-opacity="0"/>
        </linearGradient>
        <linearGradient id="paint6_linear_43_410" x1="141.738" y1="110.077" x2="142.204" y2="122.954" gradientUnits="userSpaceOnUse">
            <stop stop-color="white"/>
            <stop offset="1" stop-color="white" stop-opacity="0"/>
        </linearGradient>
        <linearGradient id="paint7_linear_43_410" x1="98.5752" y1="116.895" x2="102.792" y2="200.998" gradientUnits="userSpaceOnUse">
            <stop stop-color="white"/>
            <stop offset="1" stop-color="white" stop-opacity="0"/>
        </linearGradient>
        <linearGradient id="paint8_linear_43_410" x1="12.2475" y1="116.895" x2="16.4641" y2="200.998" gradientUnits="userSpaceOnUse">
            <stop stop-color="white"/>
            <stop offset="1" stop-color="white" stop-opacity="0"/>
        </linearGradient>
    </defs>
</svg>
