<svg xmlns="http://www.w3.org/2000/svg" width="38" height="32" viewBox="0 0 38 32" fill="none">
<path d="M37.4522 24.1588L30.9978 21.5461L28.8091 9.61411L24.6444 1.30693C24.239 0.478886 23.012 -0.479079 21.2927 0.271792C20.5399 0.603655 20.2165 1.11785 20.0788 1.49409C19.7883 2.27873 20.0878 2.98329 20.1403 3.09166L22.392 8.1918C21.6974 8.29277 21.2483 8.6018 20.9944 8.88221C20.4173 9.51764 20.3993 10.2978 20.4115 10.5534V13.2302C20.147 13.8454 19.5348 14.2785 18.8228 14.2785C18.1112 14.2785 17.4983 13.8441 17.2341 13.2289V10.5531C17.2454 10.2975 17.2283 9.51732 16.6509 8.88189C16.398 8.60116 15.9485 8.29245 15.2526 8.19148L17.4947 3.11642C17.5584 2.98297 17.857 2.2784 17.5662 1.49377C17.4285 1.11785 17.1058 0.603334 16.351 0.271471C14.6324 -0.479401 13.4066 0.480171 13.006 1.29761L8.83585 9.61411L6.64684 21.5461L0.210105 24.1521C-0.0237885 24.2469 -0.0170327 24.4158 0.0186787 24.5251C0.241634 24.9943 0.48164 25.4528 0.737732 25.9014C0.791139 25.9764 0.914036 26.0963 1.12798 26.0095L8.45171 23.0459L10.7913 10.2868L14.8193 2.25364C14.9451 2.03851 15.1751 2.01118 15.5399 2.171C15.5911 2.19319 15.6239 2.21184 15.6435 2.22792C15.6422 2.23499 15.64 2.24657 15.6394 2.253L12.5968 9.13851C12.4816 9.30573 12.3983 9.47519 12.3404 9.63791C12.305 9.75175 12.2358 10.0389 12.2358 10.5419L12.2365 17.8296C12.2365 17.9891 12.2748 18.1088 12.351 18.1914C12.4269 18.2734 12.537 18.3149 12.6808 18.3149H13.8335C14.0134 18.3149 14.1324 18.2811 14.1942 18.2139C14.2444 18.1593 14.273 18.065 14.281 17.9364C14.2826 17.9126 14.2846 17.8895 14.2846 17.8631L14.2894 10.3775C14.3303 10.1663 14.5159 10.0068 14.7392 10.0068C14.9763 10.0068 15.1693 10.1878 15.1925 10.419C15.1931 10.4242 15.1947 10.4316 15.1947 10.4351V10.4409C15.1951 10.4489 15.1905 23.6527 15.1905 23.6527L15.1925 23.7025C15.1925 23.7173 15.2481 25.4165 13.3001 26.3323C11.8771 27.0009 7.91475 28.9085 4.6396 30.488C4.6396 30.488 4.41987 30.6044 4.62931 30.8167C5.0498 31.2087 5.48606 31.583 5.93776 31.9399C5.98923 31.9724 6.14849 32.0525 6.3634 31.9483C9.44198 30.4645 12.8648 28.8181 14.1604 28.2065C17.1885 26.7835 17.2412 24.0125 17.2345 23.6417V15.8314C17.7174 16.0658 18.2518 16.2096 18.8231 16.2096C19.3952 16.2096 19.9289 16.0661 20.4118 15.8324V23.6417C20.4051 24.0109 20.4585 26.7838 23.4865 28.2065C24.7802 28.8171 28.1953 30.46 31.2697 31.9425C31.2755 31.9447 31.2796 31.946 31.2854 31.9483C31.483 32.0441 31.6345 31.9837 31.6985 31.948C32.1583 31.5859 32.6023 31.2045 33.0295 30.8057C33.1936 30.6282 33.0604 30.5202 33.0202 30.4948C29.7425 28.9136 25.7721 27.0025 24.3487 26.333C22.4409 25.4358 22.4525 23.7572 22.4544 23.7016L22.4557 14.0377V11.6458C22.4557 11.6458 22.4544 10.4878 22.4544 10.466V10.464C22.4535 10.4409 22.457 10.4116 22.4628 10.3827C22.4634 10.3778 22.4644 10.3727 22.465 10.3676C22.4702 10.346 22.4763 10.3264 22.4834 10.31C22.5471 10.1341 22.7141 10.0074 22.9126 10.0074C23.1404 10.0074 23.3279 10.1736 23.3633 10.391L23.3665 10.3981V10.4229C23.3681 10.437 23.3665 11.6455 23.3665 11.6455L23.3668 17.8628C23.3668 18.0319 23.3971 18.1486 23.4566 18.2139C23.5181 18.2811 23.6374 18.3149 23.816 18.3149H24.9652C25.1087 18.3149 25.218 18.2734 25.2937 18.1914C25.3702 18.1088 25.4082 17.9891 25.4082 17.8293L25.4101 10.2859C25.3982 10.0527 25.3715 9.88423 25.3461 9.76975C25.2911 9.56877 25.1968 9.35171 25.0495 9.14012L22.0056 2.24625L22.004 2.22502C22.0236 2.20991 22.0552 2.19319 22.1044 2.17229C22.4702 2.01021 22.7002 2.03819 22.8154 2.23467L26.8521 10.2865L29.1913 23.0455L36.5122 26.0072C36.5141 26.0088 36.5167 26.0082 36.5189 26.0092C36.7174 26.0896 36.8384 25.9924 36.8973 25.9182C37.1598 25.4593 37.4053 24.9895 37.6331 24.5097C37.6636 24.4032 37.6604 24.2502 37.4522 24.1588Z" fill="url(#paint0_linear_402_1976)"/>
<defs>
<linearGradient id="paint0_linear_402_1976" x1="18.8236" y1="32.693" x2="18.8236" y2="0.215002" gradientUnits="userSpaceOnUse">
<stop stop-color="#3777C4"/>
<stop offset="1" stop-color="#6DCFF6"/>
</linearGradient>
</defs>
</svg>