<svg xmlns="http://www.w3.org/2000/svg" width="16" height="21" viewBox="0 0 16 21" fill="none">
  <path d="M8 10.5002C8.55 10.5002 9.021 10.3042 9.413 9.91221C9.805 9.52021 10.0007 9.04955 10 8.50021C10 7.95021 9.804 7.47921 9.412 7.08721C9.02 6.69521 8.54933 6.49955 8 6.50021C7.45 6.50021 6.979 6.69621 6.587 7.08821C6.195 7.48021 5.99933 7.95088 6 8.50021C6 9.05021 6.196 9.52121 6.588 9.91321C6.98 10.3052 7.45067 10.5009 8 10.5002ZM8 17.8502C10.0333 15.9835 11.5417 14.2875 12.525 12.7622C13.5083 11.2369 14 9.88288 14 8.70021C14 6.88355 13.4207 5.39621 12.262 4.23821C11.1033 3.08021 9.68267 2.50088 8 2.50021C6.31667 2.50021 4.89567 3.07955 3.737 4.23821C2.57833 5.39688 1.99933 6.88421 2 8.70021C2 9.88355 2.49167 11.2379 3.475 12.7632C4.45833 14.2885 5.96667 15.9842 8 17.8502ZM8 20.5002C5.31667 18.2169 3.31267 16.0962 1.988 14.1382C0.663333 12.1802 0.000666667 10.3675 0 8.70021C0 6.20021 0.804333 4.20855 2.413 2.72521C4.02167 1.24188 5.884 0.500214 8 0.500214C10.1167 0.500214 11.9793 1.24188 13.588 2.72521C15.1967 4.20855 16.0007 6.20021 16 8.70021C16 10.3669 15.3373 12.1795 14.012 14.1382C12.6867 16.0969 10.6827 18.2175 8 20.5002Z" fill="#1383FD"/>
</svg>