<svg xmlns="http://www.w3.org/2000/svg" width="17" height="15" viewBox="0 0 17 15" fill="none">
  <path d="M12.0449 9.37084H11.3375L11.0867 9.14723C11.6464 8.54593 12.0554 7.83766 12.2845 7.0731C12.5137 6.30854 12.5572 5.50659 12.4121 4.72465C11.9912 2.42225 9.91358 0.58365 7.40612 0.302063C6.52458 0.198924 5.62922 0.283653 4.78853 0.549768C3.94785 0.815883 3.18413 1.25633 2.55582 1.8374C1.92751 2.41848 1.45126 3.12478 1.16352 3.90226C0.875769 4.67975 0.784152 5.5078 0.895675 6.32307C1.20015 8.64203 3.18821 10.5634 5.67776 10.9527C6.52327 11.0869 7.39041 11.0466 8.21712 10.8347C9.04383 10.6228 9.80967 10.2446 10.4599 9.72697L10.7016 9.95886V10.6131L14.5076 14.133C14.8748 14.4725 15.4748 14.4725 15.8419 14.133C16.2091 13.7934 16.2091 13.2385 15.8419 12.899L12.0449 9.37084ZM6.67179 9.37084C4.44194 9.37084 2.64194 7.70616 2.64194 5.64395C2.64194 3.58173 4.44194 1.91705 6.67179 1.91705C8.90164 1.91705 10.7016 3.58173 10.7016 5.64395C10.7016 7.70616 8.90164 9.37084 6.67179 9.37084Z" fill="#7E7E7E"/>
</svg>