<svg xmlns="http://www.w3.org/2000/svg" width="20" height="21" viewBox="0 0 20 21" fill="none">
  <path d="M9.99902 0.498993C15.523 0.498993 20.001 4.97699 20.001 10.501C20.001 16.024 15.523 20.501 9.99902 20.501C4.47502 20.502 -0.000976395 16.024 -0.000976395 10.501C-0.0019764 4.97699 4.47502 0.498993 9.99902 0.498993ZM12.939 15.001H7.06002C7.71202 17.416 8.84602 19.003 10 19.003C11.153 19.003 12.287 17.415 12.939 15.001ZM5.50902 15.001H2.78402C3.74994 16.5457 5.18496 17.7407 6.87902 18.411C6.35702 17.591 5.92602 16.565 5.60902 15.396L5.50702 15.001H5.50902ZM17.214 15.001H14.492C14.168 16.336 13.7 17.501 13.119 18.412C14.7059 17.7843 16.0679 16.695 17.029 15.285L17.214 15.001ZM5.09302 8.50099H1.73502L1.73002 8.51799C1.57561 9.16766 1.49807 9.83323 1.49902 10.501C1.49762 11.5256 1.68193 12.5421 2.04302 13.501H5.21602C5.0696 12.5077 4.99707 11.505 4.99902 10.501C4.99902 9.81699 5.03102 9.14699 5.09402 8.49999L5.09302 8.50099ZM13.396 8.50099H6.60202C6.42611 10.1663 6.47151 11.8476 6.73702 13.501H13.261C13.5265 11.8476 13.5719 10.1663 13.396 8.50099ZM18.264 8.50099H14.906C14.968 9.14799 15.001 9.81799 15.001 10.501C15.0026 11.505 14.9298 12.5078 14.783 13.501H17.956C18.3174 12.5421 18.502 11.5257 18.501 10.501C18.501 9.81199 18.419 9.14199 18.264 8.50099ZM6.87902 2.58899L6.85602 2.59699C4.80907 3.41469 3.15807 4.99294 2.24902 7.00099H5.29702C5.61102 5.24899 6.15702 3.72299 6.88002 2.59099L6.87902 2.58899ZM9.99902 1.99799L9.88202 2.00299C8.61902 2.12099 7.39602 4.12199 6.82902 7.00099H13.171C12.605 4.13099 11.388 2.13199 10.126 2.00599L9.99902 1.99799ZM13.119 2.58799L13.225 2.76299C13.895 3.87499 14.402 5.33499 14.7 6.99999H17.748C16.8799 5.08408 15.3347 3.55632 13.409 2.70999L13.119 2.58799Z" fill="white"/>
</svg>