<svg width="1284" height="2778" viewBox="0 0 1284 2778" fill="none" xmlns="http://www.w3.org/2000/svg">
<g clip-path="url(#clip0_575_1932)">
<rect width="1284" height="2778" fill="white"/>
<mask id="mask0_575_1932" style="mask-type:alpha" maskUnits="userSpaceOnUse" x="-2" y="1136" width="1287" height="1808">
<rect x="-2" y="1136.23" width="1286.2" height="1807.72" fill="#D9D9D9"/>
</mask>
<g mask="url(#mask0_575_1932)">
<path d="M-724.345 2215.08C-712.439 2418.07 -557.951 2592.38 -398.686 2742.43C-239.422 2892.49 -63.0475 3040.62 11.374 3233.5C45.7018 3322.49 56.4308 3416.95 85.8355 3507.22C115.24 3597.49 168.311 3687.95 261.715 3736.18C407.762 3811.62 605.662 3756.12 724.913 3651.46C844.164 3546.77 905.127 3404.49 970.531 3269.11C1035.94 3133.73 1114.95 2994.65 1255.12 2911.38C1429.31 2807.9 1686.08 2796.79 1795.27 2640.73C1883.27 2514.97 1824.63 2342.34 1700.24 2241.9C1575.86 2141.45 1402.55 2099.76 1233.81 2078.4C1065.07 2057.04 892.391 2052.3 728.98 2010.26C453.996 1939.52 219.655 1680.32 -74.004 1681.38C-418.379 1682.63 -742.66 1902.94 -724.345 2215.08Z" fill="url(#paint0_linear_575_1932)"/>
<g style="mix-blend-mode:multiply" opacity="0.6">
<path d="M1367.13 2671.68C1380.51 2701.5 1353.76 2736.05 1340.38 2770.6C1139.71 2977.88 965.796 3173.64 845.193 3415.37C825.327 3438.51 801.916 3458.66 775.909 3475.9C749.889 3493.14 721.274 3507.47 690.799 3518.85C643.441 3529.8 594.344 3537.21 543.909 3541.17C493.474 3545.13 443.628 3545.49 394.692 3542.49C136.364 3553.65 2.58458 3357.88 2.58458 3162.12C2.58458 2966.35 -251.596 2908.77 -398.753 2770.58C-452.265 2713 -438.887 2643.91 -432.519 2573.19C-421.563 2532.9 -407.008 2493.71 -389.121 2455.89C-263.944 2191.22 23.9893 1994.47 377.033 1966.74C780.498 1935.06 1146.75 2133.73 1300.7 2437.07C1319.94 2474.99 1335.87 2514.47 1348.08 2554.55C1360.03 2594.49 1366.77 2633.71 1367.13 2671.68Z" fill="url(#paint1_radial_575_1932)"/>
</g>
<path d="M469.288 1865.01C399.51 1856.09 315.912 1881.84 296.409 1940.21C281.454 1984.97 308.331 2031.66 310.633 2078.19C315.17 2169.84 227.209 2242.86 146.982 2303.22C31.3145 2390.25 -86.4035 2482.54 -147.673 2603.81C-208.943 2725.09 -197.871 2883.72 -81.1022 2969.65C39.4736 3058.37 225.889 3039.87 367.157 2977.79C508.426 2915.7 624.442 2817.85 762.11 2750.01C840.484 2711.39 934.368 2682.41 1020.08 2706.86C1068.73 2720.74 1109.23 2750.44 1156.56 2767.4C1291.68 2815.79 1466.76 2730.29 1487.86 2605.61C1500.51 2530.83 1467.05 2447.53 1512.22 2382.73C1550.21 2328.25 1628.83 2308.94 1695.6 2281.85C1793.66 2242.06 1879.08 2174.44 1919.47 2087.83C1959.86 2001.22 1949.87 1895.46 1881.99 1822.7C1774.1 1707.04 1566.91 1707.47 1403.64 1754.85C1233.15 1804.34 1075.73 1882.69 909.018 1938.48C743.589 1993.82 625.871 1885 469.288 1865.01Z" fill="url(#paint2_linear_575_1932)"/>
</g>
</g>
<defs>
<linearGradient id="paint0_linear_575_1932" x1="-882.604" y1="1761.86" x2="1123.64" y2="3544.1" gradientUnits="userSpaceOnUse">
<stop stop-color="#02ECFE"/>
<stop offset="0.106" stop-color="#04DFFE"/>
<stop offset="0.286458" stop-color="#09BEFE"/>
<stop offset="0.46875" stop-color="#1288FD"/>
<stop offset="0.5844" stop-color="#128AFD"/>
<stop offset="0.5845" stop-color="#1383FD"/>
<stop offset="0.7137" stop-color="#1766D6"/>
<stop offset="1" stop-color="#201F76"/>
</linearGradient>
<radialGradient id="paint1_radial_575_1932" cx="0" cy="0" r="1" gradientUnits="userSpaceOnUse" gradientTransform="translate(533.858 2929.71) rotate(-11.9245) scale(796.396 487.252)">
<stop/>
<stop offset="0.0909" stop-color="#0E0E0E"/>
<stop offset="0.2614" stop-color="#313131"/>
<stop offset="0.4931" stop-color="#6B6B6B"/>
<stop offset="0.7738" stop-color="#BABABA"/>
<stop offset="1" stop-color="white"/>
</radialGradient>
<linearGradient id="paint2_linear_575_1932" x1="1585.18" y1="1594.75" x2="141.233" y2="3544.71" gradientUnits="userSpaceOnUse">
<stop stop-color="#02ECFE"/>
<stop offset="0.106" stop-color="#04DFFE"/>
<stop offset="0.3006" stop-color="#09BEFE"/>
<stop offset="0.5605" stop-color="#1288FD"/>
<stop offset="0.5845" stop-color="#1383FD"/>
<stop offset="0.7137" stop-color="#1766D6"/>
<stop offset="1" stop-color="#201F76"/>
</linearGradient>
<clipPath id="clip0_575_1932">
<rect width="1284" height="2778" fill="white"/>
</clipPath>
</defs>
</svg>
